<defs>
<font horiz-adv-x="975" ><font-face
    font-family="tiresias-infofont"
    units-per-em="2048"
    panose-1="0 0 4 0 0 0 0 0 0 0"
    ascent="1580"
    descent="-450"
    alphabetic="0" />
<missing-glyph horiz-adv-x="1024" d="M128 0V1580H896V0H128ZM256 128H768V1452H256V128Z" />
<glyph unicode=" " glyph-name="space" horiz-adv-x="600" />
<glyph unicode="!" glyph-name="exclam" horiz-adv-x="692" d="M201 0V278H491V0H201ZM491 1489V990L413 406H279L201 990V1489H491Z" />
<glyph unicode="&quot;" glyph-name="quotedbl" horiz-adv-x="918" d="M180 976L143 1489H398L362 976H180ZM557 976L520 1489H775L739 976H557Z" />
<glyph unicode="#" glyph-name="numbersign" horiz-adv-x="1808" d="M368 391H74L140 584H436L548 910H250L316 1103H615L749 1489H971L837 1103H1212L1346 1489H1569L1435 1103H1734L1665 910H1368L1256 584H1558L1487 391H1188L1053 0H831L966 391H590L455 0H233L368
391ZM1033 584L1146 910H770L658 584H1033Z" />
<glyph unicode="$" glyph-name="dollar" horiz-adv-x="1240" d="M697 1285V888Q1000 797 1092 623Q1140 532 1140 409Q1140 194 940 66Q840 2 701 -18V-185H540V-23Q304 1 82 136L188 344Q374 217 540 204V663Q345 723 248 799Q112 906 112 1075Q112 1335 322
1453Q418 1507 540 1521V1679H701V1522Q885 1506 1087 1383L978 1186Q831 1280 697 1285ZM701 606V215Q856 256 856 408Q856 544 701 606ZM540 939V1286Q393 1271 393 1115Q393 989 540 939Z" />
<glyph unicode="%" glyph-name="percent" horiz-adv-x="1800" d="M425 1512Q633 1512 727 1309Q771 1214 771 1103Q771 863 604 749Q525 695 425 695Q219 695 124 897Q80 991 80 1103Q80 1344 247 1458Q326 1512 425 1512ZM425 1356Q285 1356 285 1103Q285 851
425 851Q565 851 565 1103Q565 1356 425 1356ZM1374 795Q1582 795 1676 592Q1720 497 1720 386Q1720 146 1553 32Q1474 -22 1374 -22Q1168 -22 1073 180Q1029 274 1029 386Q1029 627 1196 741Q1275 795 1374 795ZM1374 639Q1234 639 1234 386Q1234 134 1374 134Q1514
134 1514 386Q1514 639 1374 639ZM344 -1L1231 1489H1456L569 -1H344Z" />
<glyph unicode="&amp;" glyph-name="ampersand" horiz-adv-x="1516" d="M393 825Q211 986 211 1174Q211 1373 413 1466Q504 1508 620 1508Q902 1508 1006 1298Q1041 1227 1041 1130H776Q776 1198 736 1239T628 1280Q574 1280 535 1249Q492 1216 492 1163Q492 1092
593 985L1044 505Q1075 558 1084 617Q1090 655 1090 723Q1090 750 1089 781H1325Q1328 748 1328 716Q1328 497 1223 312L1516 -1L1164 0L1055 118Q875 -27 606 -27Q287 -27 158 187Q100 283 100 389Q100 593 246 726Q312 786 393 825ZM553 658Q376 574 377 419Q378
317 446 258T617 199Q756 199 883 302L553 658Z" />
<glyph unicode="&apos;" glyph-name="quotesingle" horiz-adv-x="541" d="M180 976L143 1489H398L362 976H180Z" />
<glyph unicode="(" glyph-name="parenleft" horiz-adv-x="930" d="M668 1542L824 1447Q623 1127 560 783Q536 652 536 520Q536 76 824 -373L669 -468Q493 -277 380 -45Q245 232 245 520Q245 884 459 1246Q553 1405 668 1542Z" />
<glyph unicode=")" glyph-name="parenright" horiz-adv-x="930" d="M261 -468L106 -373Q394 80 394 536Q394 1001 106 1448L262 1542Q519 1250 627 908Q685 724 685 536Q685 248 552 -31Q438 -272 261 -468Z" />
<glyph unicode="*" glyph-name="asterisk" horiz-adv-x="885" d="M519 1512V1239L776 1336L836 1191L572 1099L732 879L607 787L442 1015L285 786L150 878L306 1099L49 1191L105 1336L359 1240V1512H519Z" />
<glyph unicode="+" glyph-name="plus" horiz-adv-x="1335" d="M1230 642H783V190H552V642H106V863H552V1315H783V863H1230V642Z" />
<glyph unicode="," glyph-name="comma" horiz-adv-x="615" d="M230 -290H13L163 278H457L230 -290Z" />
<glyph unicode="-" glyph-name="hyphen" horiz-adv-x="841" d="M729 499H112V719H729V499Z" />
<glyph unicode="." glyph-name="period" horiz-adv-x="615" d="M452 0H163V278H452V0Z" />
<glyph unicode="/" glyph-name="slash" horiz-adv-x="865" d="M247 0H0L619 1489H865L247 0Z" />
<glyph unicode="0" glyph-name="zero" horiz-adv-x="1335" d="M668 1512Q941 1512 1095 1275Q1233 1063 1233 744Q1233 426 1095 213Q941 -24 668 -24Q396 -24 243 213Q102 431 102 744Q102 1189 356 1404Q484 1512 668 1512ZM668 1298Q481 1298 415 1027Q385
904 385 744Q385 407 510 263Q574 189 668 189Q855 189 920 461Q950 586 950 744Q950 1084 827 1225Q764 1298 668 1298Z" />
<glyph unicode="1" glyph-name="one" horiz-adv-x="875" d="M625 1489V0H364V1169Q219 1064 40 1041V1276Q237 1315 391 1489H625Z" />
<glyph unicode="2" glyph-name="two" horiz-adv-x="1109" d="M413 219H999V0H42V206Q453 558 608 764Q731 928 731 1053Q731 1164 668 1225T492 1286Q337 1286 170 1116L20 1279Q281 1516 532 1516Q676 1516 791 1449Q912 1379 969 1253Q1008 1167 1008 1059Q1008
844 796 588Q669 435 413 219Z" />
<glyph unicode="3" glyph-name="three" horiz-adv-x="1115" d="M222 732V873L613 1264H40V1489H947V1290L592 932Q752 927 880 831Q1031 718 1031 495Q1031 231 829 92Q653 -29 376 -29Q203 -29 48 20V251Q237 189 370 189Q604 189 696 320Q743 387 743 492Q743
745 355 740Q279 739 222 732Z" />
<glyph unicode="4" glyph-name="four" horiz-adv-x="1284" d="M60 499L573 1489H835L362 536H746V1017H1004V536H1228V321H1004V0H746V321H60V499Z" />
<glyph unicode="5" glyph-name="five" horiz-adv-x="1138" d="M85 20V253Q250 189 404 189Q560 189 654 259Q758 338 758 490Q758 740 366 740Q265 740 143 719V1489H974V1264H405V948Q449 951 468 951Q853 951 982 735Q1043 633 1043 495Q1043 225 852 89Q685
-29 404 -29Q235 -29 85 20Z" />
<glyph unicode="6" glyph-name="six" horiz-adv-x="1244" d="M1038 1458L991 1272Q886 1310 777 1310Q538 1310 442 1106Q397 1010 388 878Q515 948 689 948Q971 948 1093 744Q1154 642 1154 492Q1154 175 914 40Q798 -25 648 -25Q95 -25 95 741Q95 1072 250 1280Q424
1513 744 1513Q898 1513 1038 1458ZM387 648Q387 189 648 189Q870 189 870 495Q870 742 643 742Q481 742 387 648Z" />
<glyph unicode="7" glyph-name="seven" horiz-adv-x="1161" d="M51 1489H1083V1303L481 0H194L775 1265H51V1489Z" />
<glyph unicode="8" glyph-name="eight" horiz-adv-x="1305" d="M1215 412Q1215 141 934 30Q805 -21 646 -21Q420 -21 263 86Q90 204 90 412Q90 632 354 802Q162 940 162 1144Q162 1378 401 1469Q512 1511 660 1511Q942 1511 1073 1350Q1140 1267 1140 1142Q1140
944 923 801Q1215 665 1215 412ZM700 886Q861 993 861 1133Q861 1228 795 1280Q735 1328 637 1328Q513 1328 458 1245Q430 1203 430 1142Q430 1025 552 948Q614 909 700 886ZM576 688Q371 571 371 409Q371 180 654 180Q761 180 835 226Q922 281 922 382Q922 561
576 688Z" />
<glyph unicode="9" glyph-name="nine" horiz-adv-x="1244" d="M165 44L211 230Q354 177 471 177Q814 177 856 608Q741 540 557 540Q344 540 217 661T90 995Q90 1223 228 1368T594 1513Q1149 1513 1149 747Q1149 432 1007 223Q841 -21 498 -21Q337 -21 165 44ZM857
839Q857 1298 595 1298Q374 1298 374 1000Q374 748 590 748Q747 748 857 839Z" />
<glyph unicode=":" glyph-name="colon" horiz-adv-x="615" d="M452 0H163V278H452V0ZM163 1094H452V816H163V1094Z" />
<glyph unicode=";" glyph-name="semicolon" horiz-adv-x="615" d="M230 -290H13L163 278H458L230 -290ZM163 1094H452V816H163V1094Z" />
<glyph unicode="&lt;" glyph-name="less" horiz-adv-x="1335" d="M81 832L1254 1345V1110L405 752L1254 395V160L81 673V832Z" />
<glyph unicode="=" glyph-name="equal" horiz-adv-x="1335" d="M106 859V1075H1230V859H106ZM106 429V647H1230V429H106Z" />
<glyph unicode="&gt;" glyph-name="greater" horiz-adv-x="1335" d="M81 1110V1345L1254 832V673L81 160V395L928 752L81 1110Z" />
<glyph unicode="?" glyph-name="question" horiz-adv-x="1056" d="M619 427H351Q353 567 360 611Q375 708 428 779Q474 841 595 956Q697 1053 697 1124Q697 1193 640 1236Q589 1275 517 1275Q353 1275 260 1093L57 1204Q151 1403 337 1473Q424 1506 522 1506Q790
1506 911 1337Q972 1252 972 1133Q972 1044 913 954Q871 890 788 808Q724 745 658 664Q619 596 619 427ZM624 0H346V278H624V0Z" />
<glyph unicode="@" glyph-name="at" horiz-adv-x="2004" d="M1121 281Q1020 153 874 153Q676 153 574 341Q527 428 527 528Q527 752 658 919Q799 1100 1017 1100Q1196 1100 1279 946L1313 1065H1490L1345 486Q1334 442 1327 394Q1325 336 1381 336Q1537 336 1627
539Q1670 636 1670 761Q1670 1035 1485 1193Q1311 1341 1032 1341Q731 1341 543 1143T354 641Q354 326 550 137Q743 -50 1059 -50Q1256 -50 1420 40Q1497 82 1553 135H1758Q1615 -89 1328 -184Q1193 -229 1046 -229Q660 -229 406 15Q149 262 149 646Q149 1021 404
1270T1034 1520Q1374 1520 1608 1324Q1855 1117 1855 779Q1855 460 1664 296Q1499 154 1272 154Q1211 154 1168 188T1121 281ZM744 556Q744 353 923 353Q1083 353 1170 546Q1207 628 1207 709Q1207 789 1159 844T1032 899Q911 899 824 786Q744 681 744 556Z" />
<glyph unicode="A" glyph-name="A" horiz-adv-x="1355" d="M491 632H817L654 1119L491 632ZM1028 0L887 418H421L279 0H11L538 1489H786L1312 0H1028Z" />
<glyph unicode="B" glyph-name="B" horiz-adv-x="1335" d="M205 0V1489H599Q920 1489 1026 1340Q1085 1257 1085 1111Q1085 910 919 805Q1071 783 1155 679Q1236 578 1236 423Q1236 0 691 0H205ZM478 219H695Q877 219 930 309Q958 357 958 439Q958 662 695 662H478V219ZM478
881H641Q822 881 822 1088Q822 1270 611 1270H478V881Z" />
<glyph unicode="C" glyph-name="C" horiz-adv-x="1150" d="M1137 1388L999 1213Q884 1295 747 1295Q531 1295 439 1039Q393 912 393 744Q393 402 560 262Q640 195 747 195Q881 195 1026 297L1150 125Q963 -24 736 -24Q524 -24 365 105Q215 228 148 436Q102 578
102 744Q102 1053 265 1271Q445 1512 744 1512Q953 1512 1137 1388Z" />
<glyph unicode="D" glyph-name="D" horiz-adv-x="1384" d="M648 0H205V1489H622Q954 1489 1125 1277Q1282 1083 1282 743Q1282 439 1120 229Q943 0 648 0ZM479 225H637Q855 225 953 458Q1002 575 1002 743Q1002 1067 825 1201Q742 1264 637 1264H479V225Z" />
<glyph unicode="E" glyph-name="E" horiz-adv-x="1167" d="M1064 219V0H205V1489H1064V1270H478V881H963V662H478V219H1064Z" />
<glyph unicode="F" glyph-name="F" horiz-adv-x="1121" d="M478 0H205V1489H1064V1270H478V881H963V662H478V0Z" />
<glyph unicode="G" glyph-name="G" horiz-adv-x="1349" d="M1220 159Q1009 -24 735 -24Q549 -24 402 79Q262 178 182 352T102 744Q102 945 177 1116Q259 1304 412 1411Q557 1512 735 1512Q1011 1512 1189 1341L1054 1171Q914 1295 750 1295Q533 1295 440 1045Q393
919 393 744Q393 381 582 249Q666 190 764 190Q873 190 962 256V639H663V852H1220V159Z" />
<glyph unicode="H" glyph-name="H" horiz-adv-x="1441" d="M1236 1489V0H963V662H478V0H205V1489H478V881H963V1489H1236Z" />
<glyph unicode="I" glyph-name="I" horiz-adv-x="803" d="M538 189H708V0H95V189H265V1300H95V1489H708V1300H538V189Z" />
<glyph unicode="J" glyph-name="J" horiz-adv-x="688" d="M-152 -484V-256Q84 -239 166 -88Q210 -7 210 124V1489H483V150Q483 -483 -152 -484Z" />
<glyph unicode="K" glyph-name="K" horiz-adv-x="1296" d="M970 0L478 694V0H205V1489H478V867L968 1489H1278L717 790L1296 0H970Z" />
<glyph unicode="L" glyph-name="L" horiz-adv-x="1054" d="M1019 219V0H205V1489H478V219H1019Z" />
<glyph unicode="M" glyph-name="M" horiz-adv-x="1825" d="M582 1489L916 656L1245 1489H1540L1695 0H1417L1315 1047L1028 309H798L500 1047L397 0H130L284 1489H582Z" />
<glyph unicode="N" glyph-name="N" horiz-adv-x="1525" d="M205 0V1489H500L1053 478V1489H1320V0H1030L472 1024V0H205Z" />
<glyph unicode="O" glyph-name="O" horiz-adv-x="1471" d="M736 1512Q920 1512 1067 1406Q1206 1306 1287 1133Q1369 957 1369 744Q1369 540 1297 371Q1217 182 1063 76Q917 -24 736 -24Q551 -24 403 80Q261 179 182 353T102 744Q102 946 177 1117Q258 1304 413
1411Q559 1512 736 1512ZM736 1293Q556 1293 464 1097Q393 946 393 744Q393 411 556 265Q634 195 736 195Q945 195 1036 460Q1078 583 1078 744Q1078 948 1008 1097Q917 1293 736 1293Z" />
<glyph unicode="P" glyph-name="P" horiz-adv-x="1267" d="M205 1489H631Q1179 1489 1179 1031Q1179 573 635 573H478V0H205V1489ZM478 1270V792H639Q904 792 904 1031Q904 1270 639 1270H478Z" />
<glyph unicode="Q" glyph-name="Q" horiz-adv-x="1471" d="M971 329Q1078 483 1078 744Q1078 948 1008 1097Q917 1293 736 1293Q556 1293 464 1097Q393 946 393 744Q393 411 556 265Q634 195 736 195Q773 195 804 205L632 457H884L971 329ZM937 12Q844 -24 736
-24Q551 -24 403 80Q261 179 182 353T102 744Q102 946 177 1117Q258 1304 413 1411Q559 1512 736 1512Q920 1512 1067 1406Q1206 1306 1287 1133Q1369 957 1369 744Q1369 347 1114 120L1313 -170H1062L937 12Z" />
<glyph unicode="R" glyph-name="R" horiz-adv-x="1342" d="M867 682L1342 0H1027L578 645H478V0H205V1489H624Q1147 1489 1147 1061Q1147 775 867 682ZM478 1271V857H597Q874 857 874 1057Q874 1271 622 1271H478Z" />
<glyph unicode="S" glyph-name="S" horiz-adv-x="1227" d="M183 342Q391 196 584 201Q850 208 850 406Q850 530 713 592Q659 617 499 673Q364 721 290 763Q106 868 106 1087Q106 1358 356 1467Q473 1518 618 1518Q890 1518 1080 1377L973 1182Q797 1287 612 1287Q389
1287 389 1098Q389 977 580 919Q609 911 685 887Q973 794 1073 641Q1134 547 1134 407Q1134 147 869 31Q743 -24 586 -24Q299 -24 77 135L183 342Z" />
<glyph unicode="T" glyph-name="T" horiz-adv-x="1153" d="M45 1270V1489H1108V1270H713V0H440V1270H45Z" />
<glyph unicode="U" glyph-name="U" horiz-adv-x="1437" d="M979 423V1489H1251V387Q1251 133 1012 29Q892 -23 718 -23Q489 -23 351 65Q186 170 186 387V1489H458V423Q458 196 718 196Q979 196 979 423Z" />
<glyph unicode="V" glyph-name="V" horiz-adv-x="1355" d="M311 1489L685 377L1060 1489H1328L802 0H554L27 1489H311Z" />
<glyph unicode="W" glyph-name="W" horiz-adv-x="1852" d="M1178 0L926 761L675 0H408L27 1489H306L561 392L821 1180H1033L1292 390L1568 1489H1825L1446 0H1178Z" />
<glyph unicode="X" glyph-name="X" horiz-adv-x="1295" d="M979 0L647 573L317 0H27L502 793L85 1489H375L656 1013L928 1489H1210L793 793L1268 0H979Z" />
<glyph unicode="Y" glyph-name="Y" horiz-adv-x="1261" d="M495 0V578L27 1489H318L635 862L955 1489H1234L767 578V0H495Z" />
<glyph unicode="Z" glyph-name="Z" horiz-adv-x="1160" d="M105 1270V1489H1063V1282L362 219H1095V0H60V211L759 1270H105Z" />
<glyph unicode="[" glyph-name="bracketleft" horiz-adv-x="927" d="M796 -469H312V1535H796V1359H574V-294H796V-469Z" />
<glyph unicode="\" glyph-name="backslash" horiz-adv-x="865" d="M247 1489L865 0H619L0 1489H247Z" />
<glyph unicode="]" glyph-name="bracketright" horiz-adv-x="927" d="M131 -469V-294H353V1359H131V1535H614V-469H131Z" />
<glyph unicode="^" glyph-name="asciicircum" horiz-adv-x="1384" d="M395 639H152L589 1489H796L1230 639H989L692 1236L395 639Z" />
<glyph unicode="_" glyph-name="underscore" horiz-adv-x="1024" d="M1024 -383H0V-163H1024V-383Z" />
<glyph unicode="`" glyph-name="grave" horiz-adv-x="1070" d="M560 1594L704 1280H510L267 1594H560Z" />
<glyph unicode="a" glyph-name="a" horiz-adv-x="1127" d="M303 864L215 1043Q382 1119 568 1119Q843 1119 926 942Q973 842 973 660V0H717V81Q618 -21 461 -21Q289 -21 185 77T81 346Q81 583 335 657Q451 691 598 691Q660 691 711 687Q711 855 638 895Q598 917
523 917Q412 917 303 864ZM711 283V509Q677 515 633 515Q326 515 326 329Q326 252 384 211Q435 174 515 174Q652 174 711 283Z" />
<glyph unicode="b" glyph-name="b" horiz-adv-x="1207" d="M421 74V0H168V1580H431V1020Q545 1116 696 1116Q902 1116 1015 950Q1113 805 1113 589Q1113 342 1027 182Q918 -22 692 -22Q530 -22 421 74ZM431 818V265Q527 181 620 181Q838 181 838 583Q838 904 635
904Q534 904 431 818Z" />
<glyph unicode="c" glyph-name="c" horiz-adv-x="979" d="M876 277L979 140Q803 -22 593 -22Q302 -22 165 225Q94 353 94 547Q94 774 225 939Q366 1116 588 1116Q785 1116 974 966L872 811Q728 922 595 923Q469 924 411 789Q370 693 370 547Q370 170 616 170Q738
170 876 277Z" />
<glyph unicode="d" glyph-name="d" horiz-adv-x="1207" d="M776 1025V1580H1039V1H787V92Q675 -22 509 -22Q252 -22 145 232Q94 353 94 505Q94 749 180 911Q290 1116 513 1116Q664 1116 776 1025ZM776 277V828Q680 912 587 912Q369 912 369 511Q369 191 572 191Q675
191 776 277Z" />
<glyph unicode="e" glyph-name="e" horiz-adv-x="1153" d="M934 309L1037 165Q842 -22 595 -22Q363 -22 223 150Q94 310 94 548Q94 779 217 940Q352 1116 577 1116Q861 1116 990 851Q1059 709 1059 483H370Q381 172 626 172Q766 172 934 309ZM376 668H779Q752
923 577 923Q401 923 376 668Z" />
<glyph unicode="f" glyph-name="f" horiz-adv-x="782" d="M806 1530L740 1353Q657 1392 608 1392Q481 1392 481 1164V1094H745V895H481V0H218V895H19V1094H218V1169Q218 1428 365 1543Q439 1601 551 1601Q671 1601 806 1530Z" />
<glyph unicode="g" glyph-name="g" horiz-adv-x="1208" d="M777 1031V1095H1040V-13Q1040 -229 905 -338Q781 -438 560 -438Q327 -438 163 -311L270 -158Q399 -244 536 -244Q779 -244 779 14V95Q661 -20 498 -20Q247 -20 143 233Q94 352 94 505Q94 883 287 1038Q384
1116 522 1116Q668 1116 777 1031ZM777 276V827Q680 911 586 911Q369 911 369 512Q369 191 571 191Q677 191 777 276Z" />
<glyph unicode="h" glyph-name="h" horiz-adv-x="1220" d="M1066 852V0H803V754Q803 892 665 892Q554 892 431 797V0H168V1580H431V1001Q606 1116 784 1116Q968 1116 1034 994Q1066 935 1066 852Z" />
<glyph unicode="i" glyph-name="i" horiz-adv-x="599" d="M431 1094V0H168V1094H431ZM431 1284H168V1580H431V1284Z" />
<glyph unicode="j" glyph-name="j" horiz-adv-x="599" d="M168 1094H431V-8Q431 -283 276 -391Q201 -443 93 -443Q-28 -443 -159 -372L-95 -191Q-22 -224 23 -224Q168 -224 168 31V1094ZM431 1284H168V1580H431V1284Z" />
<glyph unicode="k" glyph-name="k" horiz-adv-x="1131" d="M1152 0H835L431 519V0H168V1580H431V711L763 1094H1071L654 620L1152 0Z" />
<glyph unicode="l" glyph-name="l" horiz-adv-x="648" d="M613 200L680 28Q565 -22 446 -22Q275 -22 209 74Q155 154 155 336V1580H418V384Q418 271 436 231Q459 180 526 180Q564 180 613 200Z" />
<glyph unicode="m" glyph-name="m" horiz-adv-x="1856" d="M1066 802V0H803V754Q803 892 665 892Q558 892 431 802V0H168V1094H431V1001Q606 1116 784 1116Q966 1116 1038 982Q1224 1116 1420 1116Q1599 1116 1669 993Q1702 935 1702 852V0H1439V754Q1439 892
1301 892Q1189 892 1066 802Z" />
<glyph unicode="n" glyph-name="n" horiz-adv-x="1220" d="M1066 852V0H803V754Q803 892 664 892Q554 892 431 801V0H168V1094H431V1001Q606 1116 783 1116Q963 1116 1033 993Q1066 935 1066 852Z" />
<glyph unicode="o" glyph-name="o" horiz-adv-x="1155" d="M578 1116Q872 1116 1001 837Q1061 707 1061 547Q1061 209 831 53Q720 -22 578 -22Q283 -22 154 257Q94 387 94 547Q94 886 325 1042Q435 1116 578 1116ZM578 922Q370 922 370 547Q370 172 578 172Q785
172 785 547Q785 922 578 922Z" />
<glyph unicode="p" glyph-name="p" horiz-adv-x="1207" d="M168 1094H421V1001Q527 1116 690 1116Q904 1116 1016 953Q1113 812 1113 589Q1113 198 917 50Q821 -22 693 -22Q537 -22 431 69V-412H168V1094ZM431 810V265Q527 181 620 181Q838 181 838 583Q838 904
635 904Q528 904 431 810Z" />
<glyph unicode="q" glyph-name="q" horiz-adv-x="1207" d="M776 276V826Q684 912 587 912Q369 912 369 511Q369 190 572 190Q681 190 776 276ZM1039 -412H776V87Q675 -22 509 -22Q305 -22 192 145Q94 290 94 505Q94 751 178 911Q286 1116 510 1116Q673 1116 787
1018V1094H1039V-412Z" />
<glyph unicode="r" glyph-name="r" horiz-adv-x="818" d="M431 770V0H168V1094H431V984Q572 1114 671 1114Q744 1114 827 1058L743 838Q679 864 625 864Q522 864 431 770Z" />
<glyph unicode="s" glyph-name="s" horiz-adv-x="1004" d="M47 93L140 276Q322 173 485 173Q649 173 649 300Q649 362 577 400Q549 415 451 444Q203 518 136 623Q96 685 96 781Q96 984 294 1072Q393 1116 528 1116Q694 1116 882 1013L799 837Q648 921 528 921Q367
921 367 800Q367 745 437 711Q463 698 618 646Q718 612 764 588Q925 503 925 326Q925 114 716 22Q616 -22 488 -22Q267 -22 47 93Z" />
<glyph unicode="t" glyph-name="t" horiz-adv-x="808" d="M760 218L826 47Q692 -22 533 -22Q328 -22 272 116Q240 195 240 336V895H42V1094H240V1489H503V1094H768V895H503V384Q503 286 514 251Q536 180 610 180Q672 180 760 218Z" />
<glyph unicode="u" glyph-name="u" horiz-adv-x="1220" d="M154 243V1094H417V339Q417 202 556 202Q668 202 789 297V1094H1052V0H789V93Q610 -22 437 -22Q254 -22 187 101Q154 162 154 243Z" />
<glyph unicode="v" glyph-name="v" horiz-adv-x="1086" d="M452 0L25 1094H297L549 385L812 1094H1061L634 0H452Z" />
<glyph unicode="w" glyph-name="w" horiz-adv-x="1534" d="M980 0L767 713L556 0H350L25 1094H284L460 422L657 1094H888L1088 422L1261 1094H1509L1186 0H980Z" />
<glyph unicode="x" glyph-name="x" horiz-adv-x="1138" d="M1037 1094L712 596L1113 0H816L559 408L303 0H25L418 596L82 1094H378L569 787L759 1094H1037Z" />
<glyph unicode="y" glyph-name="y" horiz-adv-x="1085" d="M421 36L25 1094H297L548 377L811 1094H1060L649 -1Q578 -190 481 -287Q376 -393 190 -446L96 -279Q355 -186 421 36Z" />
<glyph unicode="z" glyph-name="z" horiz-adv-x="979" d="M913 199V0H57V145L597 895H116V1094H905V927L377 199H913Z" />
<glyph unicode="{" glyph-name="braceleft" horiz-adv-x="775" d="M314 534Q482 488 482 273V-148Q482 -286 571 -286H699V-469H514Q392 -469 314 -387T235 -182V247Q235 439 55 446V623Q171 629 215 717Q235 757 235 811V1250Q235 1418 370 1497Q435 1535 514
1535H699V1352H571Q482 1352 482 1214V789Q482 596 314 534Z" />
<glyph unicode="|" glyph-name="bar" horiz-adv-x="532" d="M384 -68H148V1600H384V-68Z" />
<glyph unicode="}" glyph-name="braceright" horiz-adv-x="775" d="M462 534Q294 596 294 789V1214Q294 1352 205 1352H77V1535H262Q430 1535 506 1395Q541 1330 541 1250V811Q541 635 721 623V446Q541 439 541 247V-182Q541 -363 396 -437Q333 -469 262 -469H77V-286H205Q294
-286 294 -148V273Q294 488 462 534Z" />
<glyph unicode="~" glyph-name="asciitilde" horiz-adv-x="1495" d="M1169 941L1262 766Q1149 584 982 584Q900 584 728 652Q567 716 518 716Q442 716 330 559L234 738Q362 919 520 919Q604 919 767 853T980 787Q1040 787 1169 941Z" />
<glyph unicode="&#xa0;" glyph-name="nbspace" horiz-adv-x="600" />
<glyph unicode="&#xa1;" glyph-name="exclamdown" horiz-adv-x="692" d="M201 1094H490V816H201V1094ZM491 -395H202V104L278 688H416L491 104V-395Z" />
<glyph unicode="&#xa2;" glyph-name="cent" horiz-adv-x="1166" d="M744 -23V-187H582V-22Q285 15 168 264Q110 387 110 546Q110 871 350 1029Q458 1100 582 1117V1255H744V1117Q922 1102 1074 968L958 806Q844 897 744 914V173Q862 190 967 275L1080 134Q953
5 744 -23ZM582 184V912Q482 882 431 763Q390 667 390 546Q390 252 582 184Z" />
<glyph unicode="&#xa3;" glyph-name="sterling" horiz-adv-x="1199" d="M556 225H1125V0H120V210Q377 233 377 476Q377 549 347 670H91V875H293Q258 973 258 1081Q258 1360 497 1467Q604 1515 737 1515Q924 1515 1093 1386L975 1202Q863 1285 758 1285Q541 1285
541 1055Q541 997 571 875H1002V670H617Q646 560 646 469Q646 331 556 225Z" />
<glyph unicode="&#xa5;" glyph-name="yen" horiz-adv-x="1339" d="M1274 1489L963 883H1199V707H873L807 578V497H1199V322H807V0H533V322H140V497H533V578L467 707H140V883H376L65 1489H356L673 862L994 1489H1274Z" />
<glyph unicode="&#xa8;" glyph-name="dieresis" horiz-adv-x="1070" d="M296 1561Q354 1561 395 1520T436 1421Q436 1363 395 1322T296 1281Q238 1281 198 1322T157 1421Q157 1479 197 1520T296 1561ZM775 1561Q833 1561 874 1520T915 1421Q915 1363 874 1322T775
1281Q717 1281 676 1322T634 1421Q634 1480 675 1520T775 1561Z" />
<glyph unicode="&#xa9;" glyph-name="copyright" horiz-adv-x="1813" d="M1120 651H1308Q1266 436 1114 350Q1033 304 925 304Q655 304 537 527Q481 633 481 766Q481 974 595 1097Q712 1225 918 1225Q1081 1225 1182 1138T1308 889H1120Q1087 1051 920 1051Q675
1051 675 771Q675 647 736 566Q804 477 925 477Q1091 477 1120 651ZM907 1581Q1241 1581 1474 1348T1708 780Q1708 447 1474 213T907 -21Q575 -21 341 213T106 780Q106 1113 340 1347T907 1581ZM907 1421Q735 1421 587 1336T353 1102T266 780Q266 608 351 460T585
226T907 139Q1079 139 1227 224T1461 458T1548 780Q1548 952 1463 1100T1229 1334T907 1421Z" />
<glyph unicode="&#xab;" glyph-name="guillemotleft" horiz-adv-x="1097" d="M959 465V236L582 519V723L959 1006V779L746 621L959 465ZM484 464V235L105 518V722L484 1005V778L271 620L484 464Z" />
<glyph unicode="&#xac;" glyph-name="logicalnot" horiz-adv-x="1337" d="M996 645H110V862H1227V223H996V645Z" />
<glyph unicode="&#xad;" glyph-name="minus" horiz-adv-x="1335" d="M105 642V863H1230V642H105Z" />
<glyph unicode="&#xae;" glyph-name="registered" horiz-adv-x="1813" d="M601 343V1224H936Q1257 1224 1257 967Q1257 744 1047 728L1264 343H1070L867 717H787V343H601ZM787 1076V862H917Q1068 862 1068 968Q1068 1076 910 1076H787ZM907 1581Q1241 1581 1474
1348T1708 780Q1708 447 1474 213T907 -21Q575 -21 341 213T106 780Q106 1113 340 1347T907 1581ZM907 1421Q735 1421 587 1336T353 1102T266 780Q266 608 351 460T585 226T907 139Q1079 139 1227 224T1461 458T1548 780Q1548 952 1463 1100T1229 1334T907 1421Z"
/>
<glyph unicode="0;" glyph-name="degree" horiz-adv-x="874" d="M437 1516Q572 1516 666 1422T760 1193Q760 1009 599 914Q524 870 437 870Q253 870 158 1031Q114 1106 114 1193Q114 1378 275 1473Q348 1516 437 1516ZM437 1375Q361 1375 308 1322T255 1193Q255
1117 308 1064T437 1011Q513 1011 566 1064T619 1193Q619 1269 566 1322T437 1375Z" />
<glyph unicode="4;" glyph-name="acute" horiz-adv-x="1070" d="M559 1279H366L510 1594H802L559 1279Z" />
<glyph unicode="6;" glyph-name="paragraph" horiz-adv-x="1453" d="M806 -245H572V694Q372 701 248 790Q105 893 105 1084Q105 1489 632 1489H1241V-245H1008V1299H806V-245Z" />
<glyph unicode="7;" glyph-name="middot" horiz-adv-x="611" d="M450 611H161V889H450V611Z" />
<glyph unicode="b;" glyph-name="guillemotright" horiz-adv-x="1097" d="M516 519L138 236V465L352 621L138 779V1006L516 723V519ZM614 464L828 620L614 778V1005L992 722V518L614 235V464Z" />
<glyph unicode="c;" glyph-name="onequarter" horiz-adv-x="2048" d="M384 -1L1270 1489H1495L608 -1H384ZM540 1489V553H341V1250Q260 1200 168 1184V1354Q291 1399 371 1489H540ZM1545 348V652H1739V348H1874V188H1739V0H1545V188H1128V330L1437 935H1631L1345
348H1545Z" />
<glyph unicode="d;" glyph-name="onehalf" horiz-adv-x="2048" d="M608 -1H383L1270 1489H1495L608 -1ZM540 1489V553H341V1250Q258 1200 168 1184V1354Q290 1398 371 1489H540ZM1220 784Q1385 947 1558 947Q1763 947 1838 785Q1864 729 1864 652Q1864 514
1721 346Q1652 265 1533 161H1859V0H1242V151Q1535 401 1616 533Q1657 600 1657 649Q1657 771 1534 771Q1447 771 1335 659L1220 784Z" />
<glyph unicode="e;" glyph-name="threequarters" horiz-adv-x="2048" d="M457 -1L1345 1489H1570L683 -1H457ZM242 1002L241 1098L470 1330H139V1489H713V1352L524 1155Q638 1143 700 1070T763 880Q763 666 559 584Q467 547 366 547Q256 547 143 590V755Q268
709 354 709Q552 709 552 871Q552 1010 348 1010Q322 1010 242 1002ZM1619 348V652H1814V348H1948V188H1814V0H1619V188H1202V330L1511 935H1705L1420 348H1619Z" />
<glyph unicode="f;" glyph-name="questiondown" horiz-adv-x="1056" d="M436 667H704Q702 527 695 483Q679 383 609 291Q571 243 460 138Q358 42 358 -30Q358 -99 415 -141Q467 -180 538 -180Q701 -180 795 1L998 -109Q852 -412 533 -412Q266 -412 145 -243Q83
-157 83 -39Q83 52 142 141Q185 206 267 287Q333 352 396 430Q436 500 436 667ZM431 1094H709V817H431V1094Z" />
<glyph unicode="0;" glyph-name="Agrave" horiz-adv-x="1355" d="M491 632H817L654 1119L491 632ZM1028 0L887 418H421L279 0H11L538 1489H786L1312 0H1028ZM620 1989L764 1675H570L327 1989H620Z" />
<glyph unicode="1;" glyph-name="Aacute" horiz-adv-x="1355" d="M491 632H817L654 1119L491 632ZM1028 0L887 418H421L279 0H11L538 1489H786L1312 0H1028ZM781 1674H588L732 1989H1024L781 1674Z" />
<glyph unicode="2;" glyph-name="Acircumflex" horiz-adv-x="1355" d="M491 632H817L654 1119L491 632ZM1028 0L887 418H421L279 0H11L538 1489H786L1312 0H1028ZM574 1994H780L975 1675H795L676 1823L555 1675H377L574 1994Z" />
<glyph unicode="3;" glyph-name="Atilde" horiz-adv-x="1355" d="M491 632H817L654 1119L491 632ZM1028 0L887 418H421L279 0H11L538 1489H786L1312 0H1028ZM319 1680Q355 1938 531 1938Q581 1938 690 1889T840 1840Q912 1840 923 1936H1039Q1033 1674 831
1674Q784 1674 670 1723T518 1772Q448 1772 435 1680H319Z" />
<glyph unicode="4;" glyph-name="Adieresis" horiz-adv-x="1355" d="M491 632H817L654 1119L491 632ZM1028 0L887 418H421L279 0H11L538 1489H786L1312 0H1028ZM438 1956Q496 1956 537 1915T578 1816Q578 1758 537 1717T438 1676Q380 1676 340 1717T299 1816Q299
1874 339 1915T438 1956ZM917 1956Q975 1956 1016 1915T1057 1816Q1057 1758 1016 1717T917 1676Q859 1676 818 1717T776 1816Q776 1875 817 1915T917 1956Z" />
<glyph unicode="5;" glyph-name="Aring" horiz-adv-x="1355" d="M738 632H1064L901 1119L738 632ZM1275 0L1134 418H668L526 0H258L785 1489H1033L1559 0H1275ZM655 2019Q737 2019 793 1963T849 1825Q849 1713 752 1657Q707 1631 655 1631Q543 1631 487 1729Q461
1774 461 1825Q461 1937 559 1993Q604 2019 655 2019ZM655 1915Q618 1915 592 1889T565 1825Q565 1789 592 1762T655 1735Q692 1735 718 1761T745 1825Q745 1863 719 1889T655 1915Z" />
<glyph unicode="6;" glyph-name="AE" horiz-adv-x="1927" d="M555 417L288 0H0L977 1489H1824V1270H1238V881H1724V662H1238V219H1824V0H965V417H555ZM689 634H965V1065L689 634Z" />
<glyph unicode="7;" glyph-name="Ccedilla" horiz-adv-x="1150" d="M791 -22L710 -125Q737 -119 764 -119Q851 -119 905 -162Q964 -209 964 -294Q964 -432 822 -484Q753 -509 666 -509Q551 -509 437 -452L493 -349Q588 -393 662 -393Q795 -393 795 -306Q795
-226 681 -226Q624 -226 580 -251L520 -185L649 -18Q317 26 172 372Q102 539 102 744Q102 1053 265 1271Q445 1512 744 1512Q953 1512 1137 1388L999 1213Q884 1295 747 1295Q531 1295 439 1039Q393 912 393 744Q393 402 560 262Q640 195 747 195Q881 195 1026
297L1150 125Q988 -5 791 -22Z" />
<glyph unicode="8;" glyph-name="Egrave" horiz-adv-x="1167" d="M1064 219V0H205V1489H1064V1270H478V881H963V662H478V219H1064ZM560 1989L704 1675H510L267 1989H560Z" />
<glyph unicode="9;" glyph-name="Eacute" horiz-adv-x="1167" d="M1064 219V0H205V1489H1064V1270H478V881H963V662H478V219H1064ZM739 1674H546L690 1989H982L739 1674Z" />
<glyph unicode="a;" glyph-name="Ecircumflex" horiz-adv-x="1167" d="M1064 219V0H205V1489H1064V1270H478V881H963V662H478V219H1064ZM529 1994H735L930 1675H750L631 1823L510 1675H332L529 1994Z" />
<glyph unicode="b;" glyph-name="Edieresis" horiz-adv-x="1167" d="M1064 219V0H205V1489H1064V1270H478V881H963V662H478V219H1064ZM386 1956Q444 1956 485 1915T526 1816Q526 1758 485 1717T386 1676Q328 1676 288 1717T247 1816Q247 1874 287 1915T386
1956ZM865 1956Q923 1956 964 1915T1005 1816Q1005 1758 964 1717T865 1676Q807 1676 766 1717T724 1816Q724 1875 765 1915T865 1956Z" />
<glyph unicode="c;" glyph-name="Igrave" horiz-adv-x="803" d="M538 189H708V0H95V189H265V1300H95V1489H708V1300H538V189ZM347 1989L491 1675H297L54 1989H347Z" />
<glyph unicode="d;" glyph-name="Iacute" horiz-adv-x="803" d="M538 189H708V0H95V189H265V1300H95V1489H708V1300H538V189ZM496 1674H303L447 1989H739L496 1674Z" />
<glyph unicode="e;" glyph-name="Icircumflex" horiz-adv-x="803" d="M538 189H708V0H95V189H265V1300H95V1489H708V1300H538V189ZM301 1994H507L702 1675H522L403 1823L282 1675H104L301 1994Z" />
<glyph unicode="f;" glyph-name="Idieresis" horiz-adv-x="803" d="M538 189H708V0H95V189H265V1300H95V1489H708V1300H538V189ZM161 1956Q219 1956 260 1915T301 1816Q301 1758 260 1717T161 1676Q103 1676 63 1717T22 1816Q22 1874 62 1915T161 1956ZM640
1956Q698 1956 739 1915T780 1816Q780 1758 739 1717T640 1676Q582 1676 541 1717T499 1816Q499 1875 540 1915T640 1956Z" />
<glyph unicode="&#xd1;" glyph-name="Ntilde" horiz-adv-x="1525" d="M205 0V1489H500L1053 478V1489H1320V0H1030L472 1024V0H205ZM403 1680Q439 1938 615 1938Q665 1938 774 1889T924 1840Q996 1840 1007 1936H1123Q1117 1674 915 1674Q868 1674 754 1723T602
1772Q532 1772 519 1680H403Z" />
<glyph unicode="&#xd2;" glyph-name="Ograve" horiz-adv-x="1471" d="M736 1512Q920 1512 1067 1406Q1206 1306 1287 1133Q1369 957 1369 744Q1369 540 1297 371Q1217 182 1063 76Q917 -24 736 -24Q551 -24 403 80Q261 179 182 353T102 744Q102 946 177 1117Q258
1304 413 1411Q559 1512 736 1512ZM736 1293Q556 1293 464 1097Q393 946 393 744Q393 411 556 265Q634 195 736 195Q945 195 1036 460Q1078 583 1078 744Q1078 948 1008 1097Q917 1293 736 1293ZM683 1989L827 1675H633L390 1989H683Z" />
<glyph unicode="&#xd3;" glyph-name="Oacute" horiz-adv-x="1471" d="M736 1512Q920 1512 1067 1406Q1206 1306 1287 1133Q1369 957 1369 744Q1369 540 1297 371Q1217 182 1063 76Q917 -24 736 -24Q551 -24 403 80Q261 179 182 353T102 744Q102 946 177 1117Q258
1304 413 1411Q559 1512 736 1512ZM736 1293Q556 1293 464 1097Q393 946 393 744Q393 411 556 265Q634 195 736 195Q945 195 1036 460Q1078 583 1078 744Q1078 948 1008 1097Q917 1293 736 1293ZM838 1674H645L789 1989H1081L838 1674Z" />
<glyph unicode="&#xd4;" glyph-name="Ocircumflex" horiz-adv-x="1471" d="M736 1512Q920 1512 1067 1406Q1206 1306 1287 1133Q1369 957 1369 744Q1369 540 1297 371Q1217 182 1063 76Q917 -24 736 -24Q551 -24 403 80Q261 179 182 353T102 744Q102 946 177 1117Q258
1304 413 1411Q559 1512 736 1512ZM736 1293Q556 1293 464 1097Q393 946 393 744Q393 411 556 265Q634 195 736 195Q945 195 1036 460Q1078 583 1078 744Q1078 948 1008 1097Q917 1293 736 1293ZM634 1994H840L1035 1675H855L736 1823L615 1675H437L634 1994Z"
/>
<glyph unicode="&#xd5;" glyph-name="Otilde" horiz-adv-x="1471" d="M736 1512Q920 1512 1067 1406Q1206 1306 1287 1133Q1369 957 1369 744Q1369 540 1297 371Q1217 182 1063 76Q917 -24 736 -24Q551 -24 403 80Q261 179 182 353T102 744Q102 946 177 1117Q258
1304 413 1411Q559 1512 736 1512ZM736 1293Q556 1293 464 1097Q393 946 393 744Q393 411 556 265Q634 195 736 195Q945 195 1036 460Q1078 583 1078 744Q1078 948 1008 1097Q917 1293 736 1293ZM376 1680Q412 1938 588 1938Q638 1938 747 1889T897 1840Q969 1840
980 1936H1096Q1090 1674 888 1674Q841 1674 727 1723T575 1772Q505 1772 492 1680H376Z" />
<glyph unicode="&#xd6;" glyph-name="Odieresis" horiz-adv-x="1471" d="M736 1512Q920 1512 1067 1406Q1206 1306 1287 1133Q1369 957 1369 744Q1369 540 1297 371Q1217 182 1063 76Q917 -24 736 -24Q551 -24 403 80Q261 179 182 353T102 744Q102 946 177 1117Q258
1304 413 1411Q559 1512 736 1512ZM736 1293Q556 1293 464 1097Q393 946 393 744Q393 411 556 265Q634 195 736 195Q945 195 1036 460Q1078 583 1078 744Q1078 948 1008 1097Q917 1293 736 1293ZM495 1944Q553 1944 594 1903T635 1804Q635 1746 594 1705T495 1664Q437
1664 397 1705T356 1804Q356 1862 396 1903T495 1944ZM974 1944Q1032 1944 1073 1903T1114 1804Q1114 1746 1073 1705T974 1664Q916 1664 875 1705T833 1804Q833 1863 874 1903T974 1944Z" />
<glyph unicode="&#xd7;" glyph-name="multiply" horiz-adv-x="1335" d="M1193 1135L811 752L1193 369L1051 227L668 609L285 227L143 369L525 752L143 1135L285 1277L668 895L1051 1277L1193 1135Z" />
<glyph unicode="&#xd8;" glyph-name="Oslash" horiz-adv-x="1471" d="M1234 1229Q1370 1026 1370 744Q1370 543 1295 371Q1213 182 1059 76Q913 -24 736 -24Q529 -24 369 111L258 -35L101 82L238 259Q150 392 118 567Q102 655 102 744Q102 946 177 1117Q259 1304
413 1411Q559 1512 736 1512Q941 1512 1103 1377L1214 1522L1371 1405L1234 1229ZM952 1183Q864 1293 736 1293Q556 1293 464 1097Q394 946 394 744Q394 612 425 499L952 1183ZM1048 989L520 304Q608 195 736 195Q945 195 1036 459Q1079 584 1079 744Q1079 870
1048 989Z" />
<glyph unicode="&#xd9;" glyph-name="Ugrave" horiz-adv-x="1437" d="M979 423V1489H1251V387Q1251 133 1012 29Q892 -23 718 -23Q489 -23 351 65Q186 170 186 387V1489H458V423Q458 196 718 196Q979 196 979 423ZM680 1989L824 1675H630L387 1989H680Z" />
<glyph unicode="&#xda;" glyph-name="Uacute" horiz-adv-x="1437" d="M979 423V1489H1251V387Q1251 133 1012 29Q892 -23 718 -23Q489 -23 351 65Q186 170 186 387V1489H458V423Q458 196 718 196Q979 196 979 423ZM811 1674H618L762 1989H1054L811 1674Z" />
<glyph unicode="&#xdb;" glyph-name="Ucircumflex" horiz-adv-x="1437" d="M979 423V1489H1251V387Q1251 133 1012 29Q892 -23 718 -23Q489 -23 351 65Q186 170 186 387V1489H458V423Q458 196 718 196Q979 196 979 423ZM617 1994H823L1018 1675H838L719 1823L598
1675H420L617 1994Z" />
<glyph unicode="&#xdc;" glyph-name="Udieresis" horiz-adv-x="1437" d="M979 423V1489H1251V387Q1251 133 1012 29Q892 -23 718 -23Q489 -23 351 65Q186 170 186 387V1489H458V423Q458 196 718 196Q979 196 979 423ZM479 1956Q537 1956 578 1915T619 1816Q619
1758 578 1717T479 1676Q421 1676 381 1717T340 1816Q340 1874 380 1915T479 1956ZM958 1956Q1016 1956 1057 1915T1098 1816Q1098 1758 1057 1717T958 1676Q900 1676 859 1717T817 1816Q817 1875 858 1915T958 1956Z" />
<glyph unicode="&#xdd;" glyph-name="Yacute" horiz-adv-x="1261" d="M495 0V578L27 1489H318L635 862L955 1489H1234L767 578V0H495ZM733 1674H540L684 1989H976L733 1674Z" />
<glyph unicode="&#xdf;" glyph-name="germandbls" horiz-adv-x="1343" d="M941 846Q1135 810 1211 650Q1249 570 1249 464Q1249 242 1111 111T749 -20Q646 -20 541 13V225Q632 188 713 188Q834 188 906 268Q975 345 975 467Q975 621 850 683Q760 728 587 730V927Q737
929 810 974Q904 1031 904 1171Q904 1393 688 1393Q422 1393 422 1039V-1H160V1008Q160 1604 711 1604Q986 1604 1116 1410Q1179 1316 1179 1189Q1179 1017 1079 926Q1026 878 941 846Z" />
<glyph unicode="&#xe0;" glyph-name="agrave" horiz-adv-x="1127" d="M303 864L215 1043Q382 1119 568 1119Q843 1119 926 942Q973 842 973 660V0H717V81Q618 -21 461 -21Q289 -21 185 77T81 346Q81 583 335 657Q451 691 598 691Q660 691 711 687Q711 855 638
895Q598 917 523 917Q412 917 303 864ZM711 283V509Q677 515 633 515Q326 515 326 329Q326 252 384 211Q435 174 515 174Q652 174 711 283ZM780 1594L924 1280H730L487 1594H780Z" />
<glyph unicode="&#xe1;" glyph-name="aacute" horiz-adv-x="1127" d="M303 864L215 1043Q382 1119 568 1119Q843 1119 926 942Q973 842 973 660V0H717V81Q618 -21 461 -21Q289 -21 185 77T81 346Q81 583 335 657Q451 691 598 691Q660 691 711 687Q711 855 638
895Q598 917 523 917Q412 917 303 864ZM711 283V509Q677 515 633 515Q326 515 326 329Q326 252 384 211Q435 174 515 174Q652 174 711 283ZM685 1279H492L636 1594H928L685 1279Z" />
<glyph unicode="&#xe2;" glyph-name="acircumflex" horiz-adv-x="1127" d="M303 864L215 1043Q382 1119 568 1119Q843 1119 926 942Q973 842 973 660V0H717V81Q618 -21 461 -21Q289 -21 185 77T81 346Q81 583 335 657Q451 691 598 691Q660 691 711 687Q711 855
638 895Q598 917 523 917Q412 917 303 864ZM711 283V509Q677 515 633 515Q326 515 326 329Q326 252 384 211Q435 174 515 174Q652 174 711 283ZM472 1599H678L873 1280H693L574 1428L453 1280H275L472 1599Z" />
<glyph unicode="&#xe3;" glyph-name="atilde" horiz-adv-x="1127" d="M303 864L215 1043Q382 1119 568 1119Q843 1119 926 942Q973 842 973 660V0H717V81Q618 -21 461 -21Q289 -21 185 77T81 346Q81 583 335 657Q451 691 598 691Q660 691 711 687Q711 855 638
895Q598 917 523 917Q412 917 303 864ZM711 283V509Q677 515 633 515Q326 515 326 329Q326 252 384 211Q435 174 515 174Q652 174 711 283ZM226 1285Q262 1543 438 1543Q488 1543 597 1494T747 1445Q819 1445 830 1541H946Q940 1279 738 1279Q691 1279 577 1328T425
1377Q355 1377 342 1285H226Z" />
<glyph unicode="&#xe4;" glyph-name="adieresis" horiz-adv-x="1127" d="M303 864L215 1043Q382 1119 568 1119Q843 1119 926 942Q973 842 973 660V0H717V81Q618 -21 461 -21Q289 -21 185 77T81 346Q81 583 335 657Q451 691 598 691Q660 691 711 687Q711 855 638
895Q598 917 523 917Q412 917 303 864ZM711 283V509Q677 515 633 515Q326 515 326 329Q326 252 384 211Q435 174 515 174Q652 174 711 283ZM326 1561Q384 1561 425 1520T466 1421Q466 1363 425 1322T326 1281Q268 1281 228 1322T187 1421Q187 1479 227 1520T326
1561ZM805 1561Q863 1561 904 1520T945 1421Q945 1363 904 1322T805 1281Q747 1281 706 1322T664 1421Q664 1480 705 1520T805 1561Z" />
<glyph unicode="&#xe5;" glyph-name="aring" horiz-adv-x="1127" d="M303 864L215 1043Q382 1119 568 1119Q843 1119 926 942Q973 842 973 660V0H717V81Q618 -21 461 -21Q289 -21 185 77T81 346Q81 583 335 657Q451 691 598 691Q660 691 711 687Q711 855 638 895Q598
917 523 917Q412 917 303 864ZM711 283V509Q677 515 633 515Q326 515 326 329Q326 252 384 211Q435 174 515 174Q652 174 711 283ZM578 1620Q660 1620 716 1564T772 1426Q772 1314 675 1258Q630 1232 578 1232Q466 1232 410 1330Q384 1375 384 1426Q384 1538 482
1594Q527 1620 578 1620ZM578 1516Q541 1516 515 1490T488 1426Q488 1390 515 1363T578 1336Q615 1336 641 1362T668 1426Q668 1464 642 1490T578 1516Z" />
<glyph unicode="&#xe6;" glyph-name="ae" horiz-adv-x="1757" d="M1199 -22Q963 -22 832 145Q672 -23 461 -21Q289 -19 187 77Q80 176 81 346Q82 583 335 657Q451 691 598 691Q660 691 711 687Q711 855 638 895Q598 917 523 917Q412 917 303 864L215 1043Q382
1119 568 1119Q796 1119 886 1007Q1012 1116 1181 1116Q1465 1116 1594 851Q1663 709 1663 483H974Q985 172 1230 172Q1370 172 1538 309L1641 165Q1446 -22 1199 -22ZM734 317Q703 407 699 511Q672 515 633 515Q326 515 326 329Q326 252 384 211Q435 174 515 174Q661
174 734 317ZM980 668H1383Q1356 923 1181 923Q1005 923 980 668Z" />
<glyph unicode="&#xe7;" glyph-name="ccedilla" horiz-adv-x="979" d="M876 277L979 140Q840 13 674 -15L590 -122Q617 -116 643 -116Q837 -116 837 -287Q837 -398 744 -452Q669 -496 550 -496Q438 -496 324 -441L379 -339Q473 -383 543 -383Q673 -383 673 -296Q673
-221 567 -221Q516 -221 464 -244L405 -180L532 -16Q314 10 199 172Q94 319 94 547Q94 774 225 939Q366 1116 588 1116Q785 1116 974 966L872 811Q727 923 595 923Q469 923 412 789Q370 691 370 547Q370 170 616 170Q738 170 876 277Z" />
<glyph unicode="&#xe8;" glyph-name="egrave" horiz-adv-x="1153" d="M934 309L1037 165Q842 -22 595 -22Q363 -22 223 150Q94 310 94 548Q94 779 217 940Q352 1116 577 1116Q861 1116 990 851Q1059 709 1059 483H370Q381 172 626 172Q766 172 934 309ZM376 668H779Q752
923 577 923Q401 923 376 668ZM789 1594L933 1280H739L496 1594H789Z" />
<glyph unicode="&#xe9;" glyph-name="eacute" horiz-adv-x="1153" d="M934 309L1037 165Q842 -22 595 -22Q363 -22 223 150Q94 310 94 548Q94 779 217 940Q352 1116 577 1116Q861 1116 990 851Q1059 709 1059 483H370Q381 172 626 172Q766 172 934 309ZM376 668H779Q752
923 577 923Q401 923 376 668ZM688 1279H495L639 1594H931L688 1279Z" />
<glyph unicode="&#xea;" glyph-name="ecircumflex" horiz-adv-x="1153" d="M934 309L1037 165Q842 -22 595 -22Q363 -22 223 150Q94 310 94 548Q94 779 217 940Q352 1116 577 1116Q861 1116 990 851Q1059 709 1059 483H370Q381 172 626 172Q766 172 934 309ZM376
668H779Q752 923 577 923Q401 923 376 668ZM487 1599H693L888 1280H708L589 1428L468 1280H290L487 1599Z" />
<glyph unicode="&#xeb;" glyph-name="edieresis" horiz-adv-x="1153" d="M934 309L1037 165Q842 -22 595 -22Q363 -22 223 150Q94 310 94 548Q94 779 217 940Q352 1116 577 1116Q861 1116 990 851Q1059 709 1059 483H370Q381 172 626 172Q766 172 934 309ZM376
668H779Q752 923 577 923Q401 923 376 668ZM338 1561Q396 1561 437 1520T478 1421Q478 1363 437 1322T338 1281Q280 1281 240 1322T199 1421Q199 1479 239 1520T338 1561ZM817 1561Q875 1561 916 1520T957 1421Q957 1363 916 1322T817 1281Q759 1281 718 1322T676
1421Q676 1480 717 1520T817 1561Z" />
<glyph unicode="&#xec;" glyph-name="igrave" horiz-adv-x="599" d="M431 1094V0H168V1094H431ZM254 1594L398 1280H204L-39 1594H254Z" />
<glyph unicode="&#xed;" glyph-name="iacute" horiz-adv-x="599" d="M431 1094V0H168V1094H431ZM400 1279H207L351 1594H643L400 1279Z" />
<glyph unicode="&#xee;" glyph-name="icircumflex" horiz-adv-x="599" d="M431 1094V0H168V1094H431ZM196 1599H402L597 1280H417L298 1428L177 1280H-1L196 1599Z" />
<glyph unicode="&#xef;" glyph-name="idieresis" horiz-adv-x="599" d="M431 1094V0H168V1094H431ZM69 1561Q127 1561 168 1520T209 1421Q209 1363 168 1322T69 1281Q11 1281 -29 1322T-70 1421Q-70 1479 -30 1520T69 1561ZM529 1561Q587 1561 628 1520T669 1421Q669
1363 628 1322T529 1281Q471 1281 430 1322T388 1421Q388 1480 429 1520T529 1561Z" />
<glyph unicode="&#xf1;" glyph-name="ntilde" horiz-adv-x="1220" d="M1066 852V0H803V754Q803 892 664 892Q554 892 431 801V0H168V1094H431V1001Q606 1116 783 1116Q963 1116 1033 993Q1066 935 1066 852ZM262 1285Q298 1543 474 1543Q524 1543 633 1494T783
1445Q855 1445 866 1541H982Q976 1279 774 1279Q727 1279 613 1328T461 1377Q391 1377 378 1285H262Z" />
<glyph unicode="&#xf2;" glyph-name="ograve" horiz-adv-x="1155" d="M578 1116Q872 1116 1001 837Q1061 707 1061 547Q1061 209 831 53Q720 -22 578 -22Q283 -22 154 257Q94 387 94 547Q94 886 325 1042Q435 1116 578 1116ZM578 922Q370 922 370 547Q370 172
578 172Q785 172 785 547Q785 922 578 922ZM792 1594L936 1280H742L499 1594H792Z" />
<glyph unicode="&#xf3;" glyph-name="oacute" horiz-adv-x="1155" d="M578 1116Q872 1116 1001 837Q1061 707 1061 547Q1061 209 831 53Q720 -22 578 -22Q283 -22 154 257Q94 387 94 547Q94 886 325 1042Q435 1116 578 1116ZM578 922Q370 922 370 547Q370 172
578 172Q785 172 785 547Q785 922 578 922ZM682 1279H489L633 1594H925L682 1279Z" />
<glyph unicode="&#xf4;" glyph-name="ocircumflex" horiz-adv-x="1155" d="M578 1116Q872 1116 1001 837Q1061 707 1061 547Q1061 209 831 53Q720 -22 578 -22Q283 -22 154 257Q94 387 94 547Q94 886 325 1042Q435 1116 578 1116ZM578 922Q370 922 370 547Q370
172 578 172Q785 172 785 547Q785 922 578 922ZM475 1599H681L876 1280H696L577 1428L456 1280H278L475 1599Z" />
<glyph unicode="&#xf5;" glyph-name="otilde" horiz-adv-x="1155" d="M578 1116Q872 1116 1001 837Q1061 707 1061 547Q1061 209 831 53Q720 -22 578 -22Q283 -22 154 257Q94 387 94 547Q94 886 325 1042Q435 1116 578 1116ZM578 922Q370 922 370 547Q370 172
578 172Q785 172 785 547Q785 922 578 922ZM217 1285Q253 1543 429 1543Q479 1543 588 1494T738 1445Q810 1445 821 1541H937Q931 1279 729 1279Q682 1279 568 1328T416 1377Q346 1377 333 1285H217Z" />
<glyph unicode="&#xf6;" glyph-name="odieresis" horiz-adv-x="1155" d="M578 1116Q872 1116 1001 837Q1061 707 1061 547Q1061 209 831 53Q720 -22 578 -22Q283 -22 154 257Q94 387 94 547Q94 886 325 1042Q435 1116 578 1116ZM578 922Q370 922 370 547Q370 172
578 172Q785 172 785 547Q785 922 578 922ZM338 1561Q396 1561 437 1520T478 1421Q478 1363 437 1322T338 1281Q280 1281 240 1322T199 1421Q199 1479 239 1520T338 1561ZM817 1561Q875 1561 916 1520T957 1421Q957 1363 916 1322T817 1281Q759 1281 718 1322T676
1421Q676 1480 717 1520T817 1561Z" />
<glyph unicode="&#xf7;" glyph-name="divide" horiz-adv-x="1335" d="M1230 863V642H106V863H1230ZM668 504Q723 504 763 464T803 369Q803 314 763 274T668 234Q612 234 573 273T533 369Q533 425 572 464T668 504ZM668 1271Q723 1271 763 1231T803 1136Q803 1081
763 1041T668 1001Q612 1001 573 1040T533 1136Q533 1192 572 1231T668 1271Z" />
<glyph unicode="&#xf8;" glyph-name="oslash" horiz-adv-x="1155" d="M188 196Q95 346 95 547Q95 886 326 1042Q436 1116 579 1116Q728 1116 842 1034L918 1132L1063 1028L966 902Q1062 755 1062 547Q1062 209 832 53Q721 -22 579 -22Q430 -22 313 62L237 -37L91
70L188 196ZM379 437L707 861Q657 922 579 922Q371 922 371 547Q371 482 379 437ZM448 235Q499 172 579 172Q786 172 786 547Q786 604 778 662L448 235Z" />
<glyph unicode="&#xf9;" glyph-name="ugrave" horiz-adv-x="1220" d="M154 243V1094H417V339Q417 202 556 202Q668 202 789 297V1094H1052V0H789V93Q610 -22 437 -22Q254 -22 187 101Q154 162 154 243ZM801 1594L945 1280H751L508 1594H801Z" />
<glyph unicode="&#xfa;" glyph-name="uacute" horiz-adv-x="1220" d="M154 243V1094H417V339Q417 202 556 202Q668 202 789 297V1094H1052V0H789V93Q610 -22 437 -22Q254 -22 187 101Q154 162 154 243ZM700 1279H507L651 1594H943L700 1279Z" />
<glyph unicode="&#xfb;" glyph-name="ucircumflex" horiz-adv-x="1220" d="M154 243V1094H417V339Q417 202 556 202Q668 202 789 297V1094H1052V0H789V93Q610 -22 437 -22Q254 -22 187 101Q154 162 154 243ZM496 1599H702L897 1280H717L598 1428L477 1280H299L496 1599Z" />
<glyph unicode="&#xfc;" glyph-name="udieresis" horiz-adv-x="1220" d="M154 243V1094H417V339Q417 202 556 202Q668 202 789 297V1094H1052V0H789V93Q610 -22 437 -22Q254 -22 187 101Q154 162 154 243ZM368 1561Q426 1561 467 1520T508 1421Q508 1363 467 1322T368
1281Q310 1281 270 1322T229 1421Q229 1479 269 1520T368 1561ZM847 1561Q905 1561 946 1520T987 1421Q987 1363 946 1322T847 1281Q789 1281 748 1322T706 1421Q706 1480 747 1520T847 1561Z" />
<glyph unicode="&#xfd;" glyph-name="yacute" horiz-adv-x="1085" d="M421 36L25 1094H297L548 377L811 1094H1060L649 -1Q578 -190 481 -287Q376 -393 190 -446L96 -279Q355 -186 421 36ZM649 1279H456L600 1594H892L649 1279Z" />
<glyph unicode="&#xff;" glyph-name="ydieresis" horiz-adv-x="1085" d="M421 36L25 1094H297L548 377L811 1094H1060L649 -1Q578 -190 481 -287Q376 -393 190 -446L96 -279Q355 -186 421 36ZM296 1561Q354 1561 395 1520T436 1421Q436 1363 395 1322T296 1281Q238
1281 198 1322T157 1421Q157 1479 197 1520T296 1561ZM775 1561Q833 1561 874 1520T915 1421Q915 1363 874 1322T775 1281Q717 1281 676 1322T634 1421Q634 1480 675 1520T775 1561Z" />
</font>
</defs>
</svg>
